<svg xmlns="http://www.w3.org/2000/svg" width="23.976" height="22.542" viewBox="0 0 23.976 22.542"><g transform="translate(-167 -130.167)"><path class="a" d="M1.453,0h0A1.453,1.453,0,0,1,2.905,1.453V2.905a0,0,0,0,1,0,0H0a0,0,0,0,1,0,0V1.453A1.453,1.453,0,0,1,1.453,0Z" transform="translate(178.042 133.173)"/><path class="a" d="M325.611,199.845h4.065s-.314-1.407-3.114-4.206-4.312-3.186-4.312-3.186v4.032A3.365,3.365,0,0,0,325.611,199.845Z" transform="translate(-138.924 -55.736)"/><circle class="a" cx="2.501" cy="2.501" r="2.501" transform="translate(170.319 147.706)"/><path class="a" d="M186.687,199.386a4.207,4.207,0,0,1-4.2-4.2V191H168.052A1.052,1.052,0,0,0,167,192.052v11.54a1.052,1.052,0,0,0,1.052,1.052h1.387a3.381,3.381,0,0,1,6.762,0h4.91a3.381,3.381,0,0,1,6.762,0h2.051a1.052,1.052,0,0,0,1.052-1.052v-4.205Z" transform="translate(0 -54.436)"/><circle class="a" cx="2.501" cy="2.501" r="2.501" transform="translate(181.992 147.706)"/><g transform="translate(179.074 130.167)"><path class="a" d="M282.233,132.305a.421.421,0,0,1-.421-.421v-1.3a.421.421,0,1,1,.841,0v1.3A.421.421,0,0,1,282.233,132.305Z" transform="translate(-281.812 -130.167)"/></g><g transform="translate(176.448 131.062)"><path class="a" d="M258.185,140.44a.419.419,0,0,1-.3-.123l-.917-.917a.421.421,0,0,1,.595-.595l.917.917a.421.421,0,0,1-.3.718Z" transform="translate(-256.848 -138.682)"/></g><g transform="translate(175.207 133.48)"><path class="a" d="M246.76,162.508h-1.3a.421.421,0,0,1,0-.841h1.3a.421.421,0,0,1,0,.841Z" transform="translate(-245.042 -161.667)"/></g><g transform="translate(180.747 131.062)"><path class="a" d="M298.143,140.44a.421.421,0,0,1-.3-.718l.917-.917a.421.421,0,1,1,.595.595l-.917.917A.419.419,0,0,1,298.143,140.44Z" transform="translate(-297.723 -138.682)"/></g><g transform="translate(181.608 133.48)"><path class="a" d="M307.635,162.508h-1.3a.421.421,0,0,1,0-.841h1.3a.421.421,0,0,1,0,.841Z" transform="translate(-305.917 -161.667)"/></g></g></svg>
