<svg id="Layer_1" data-name="Layer 1" xmlns="http://www.w3.org/2000/svg" viewBox="0 0 24 22.56"><title>gov 4 icons</title><path d="M12.51,3h0A1.45,1.45,0,0,1,14,4.46V5.92a0,0,0,0,1,0,0H11.05a0,0,0,0,1,0,0V4.46A1.45,1.45,0,0,1,12.51,3Z"/><path d="M19.71,14.67h4.06s-.31-1.4-3.11-4.21-4.32-3.19-4.32-3.19v4A3.36,3.36,0,0,0,19.71,14.67Z" transform="translate(0 -0.72)"/><circle cx="5.83" cy="20.06" r="2.5"/><path d="M19.71,15.52a4.22,4.22,0,0,1-4.21-4.21V7.12H1.05a1,1,0,0,0-1,1V19.73a1,1,0,0,0,1.05,1.05H2.44a3.39,3.39,0,1,1,6.77,0h4.92a3.38,3.38,0,1,1,6.76,0H23A1,1,0,0,0,24,19.73V15.52Z" transform="translate(0 -0.72)"/><circle cx="17.51" cy="20.06" r="2.5"/><path d="M12.51,2.86a.42.42,0,0,1-.42-.42V1.14a.42.42,0,0,1,.42-.42.42.42,0,0,1,.42.42v1.3A.42.42,0,0,1,12.51,2.86Z" transform="translate(0 -0.72)"/><path d="M10.8,3.37a.42.42,0,0,1-.3-.12l-.92-.92a.42.42,0,0,1,0-.59.42.42,0,0,1,.6,0l.91.92a.41.41,0,0,1,0,.59A.42.42,0,0,1,10.8,3.37Z" transform="translate(0 -0.72)"/><path d="M9.93,4.88H8.64a.43.43,0,1,1,0-.85H9.93a.43.43,0,1,1,0,.85Z" transform="translate(0 -0.72)"/><path d="M14.18,3.37a.44.44,0,0,1-.3-.12.42.42,0,0,1,0-.59l.92-.92a.42.42,0,0,1,.6,0,.42.42,0,0,1,0,.59l-.92.92A.42.42,0,0,1,14.18,3.37Z" transform="translate(0 -0.72)"/><path d="M16.34,4.88H15A.43.43,0,0,1,15,4h1.3a.43.43,0,0,1,0,.85Z" transform="translate(0 -0.72)"/></svg>
