<svg xmlns="http://www.w3.org/2000/svg" width="106.632" height="99.299" viewBox="0 0 106.632 99.299"><g transform="translate(0 0)"><path fill="currentColor" class="a" d="M-939.2,412.476q.349-11.037.71-22.074a.959.959,0,0,0-.582-1c-.923-.5-1.8-1.084-2.728-1.578a18.084,18.084,0,0,1-7.891-8.534,25.321,25.321,0,0,0-7.488-9.488,36.935,36.935,0,0,0-3.181-1.933,4.019,4.019,0,0,1-1.039-.753,1.851,1.851,0,0,1-.432-2.248,3.064,3.064,0,0,1,2.665-1.538,16.332,16.332,0,0,1,8.542,2.562,20.349,20.349,0,0,1,5.964,5.643c.155.215.484.514.657.477a1.048,1.048,0,0,0,.62-.6,13.594,13.594,0,0,0,.677-9.19c-1.763-5.57-3.492-11.148-5.23-16.725a6.406,6.406,0,0,1-.256-1.091,2.788,2.788,0,0,1,2.465-3.249,2.98,2.98,0,0,1,3.566,1.917c2.146,5.584,4.277,11.174,6.431,16.755.187.484.188,1.215,1.06,1.13a1.708,1.708,0,0,0,1.229-1.646q-.167-9.734-.332-19.468c-.035-2.13,1.275-3.435,3.5-3.536a2.562,2.562,0,0,1,2.751,1.578,8.843,8.843,0,0,1,.628,2.9c.181,6.384.291,12.77.424,19.156a1.82,1.82,0,0,0,.03.556,6.93,6.93,0,0,0,.393.8,3.17,3.17,0,0,0,.824-.449,2.029,2.029,0,0,0,.421-.825c1.74-5.683,3.463-11.371,5.211-17.053a8.3,8.3,0,0,1,.818-1.9,3.031,3.031,0,0,1,3.471-1.243,2.057,2.057,0,0,1,1.441,1.728,9.04,9.04,0,0,1-.083,4.32c-1.4,5.549-2.833,11.093-4.249,16.639a2.743,2.743,0,0,0-.164.913,2.169,2.169,0,0,0,.376.706,2.159,2.159,0,0,0,.581-.4c1.791-2.554,3.56-5.121,5.34-7.681q1.544-2.22,3.111-4.427a9.8,9.8,0,0,1,.976-1.183,2.956,2.956,0,0,1,3.58-.622,1.693,1.693,0,0,1,1.149,1.613,5,5,0,0,1-.251,1.773,23.011,23.011,0,0,1-1.58,3.35c-2.143,3.59-4.347,7.149-6.545,10.711a5.142,5.142,0,0,0-.781,2.533c-.128,2.691-.18,5.4-.535,8.065a21.523,21.523,0,0,1-3.447,9.215,13.879,13.879,0,0,1-3.185,3.417,1.061,1.061,0,0,0-.3.8q.219,6.622.485,13.242.552,14.36,1.122,28.72c.021.519-.194.658-.68.764a69.9,69.9,0,0,1-20.35,1.362c-.579-.045-.622-.287-.608-.715q.364-11.1.708-22.2Zm-2.332-41.789a20.159,20.159,0,0,1,7.8,3.194,14.469,14.469,0,0,1,4.775,6.472,4.762,4.762,0,0,0-.1-1.393c-.822-3.7-3.28-6.062-7.011-7.361A16.848,16.848,0,0,0-941.528,370.687Z" transform="translate(987.301 -336.31)"/><path fill="currentColor" class="a" d="M-1118.463,692.585c-.329-.094-.541-.144-.744-.215a66.107,66.107,0,0,1-12.565-5.943,1.347,1.347,0,0,1-.731-1.146c-.548-5.867-1.132-11.73-1.679-17.6a.942.942,0,0,0-.7-.919c-.5-.181-.966-.431-1.458-.625a11.672,11.672,0,0,1-5.626-4.793,15.522,15.522,0,0,0-4.878-4.965,16.05,16.05,0,0,0-2.357-1.155c-.824-.341-1.372-.926-1.3-1.546a1.939,1.939,0,0,1,1.7-1.382,10.021,10.021,0,0,1,4.328.617,12.527,12.527,0,0,1,4.941,3.322,2.73,2.73,0,0,0,.572.359,2.048,2.048,0,0,0,.344-.562,8.448,8.448,0,0,0-.341-5.491c-1.485-3.222-2.95-6.451-4.421-9.678a5.456,5.456,0,0,1-.3-.757,1.686,1.686,0,0,1,1.164-2.213,1.852,1.852,0,0,1,2.391.927q2.442,4.534,4.86,9.079c.109.2.2.419.328.613.194.3.25.835.79.664a.91.91,0,0,0,.6-1.117c-.572-3.862-1.125-7.725-1.7-11.587a2.01,2.01,0,0,1,1.713-2.581,1.576,1.576,0,0,1,1.848.67,5.266,5.266,0,0,1,.674,1.8c.6,3.774,1.15,7.555,1.717,11.333a1.5,1.5,0,0,0,.073.428c.116.24.274.462.415.691.193-.234.5-.447.558-.706.271-1.323.477-2.659.7-3.99.4-2.335.784-4.671,1.2-7a4.237,4.237,0,0,1,.44-1.294,1.74,1.74,0,0,1,1.814-.807,1.19,1.19,0,0,1,1.125,1.08,12.43,12.43,0,0,1,.186,3.015c-.342,3.323-.8,6.635-1.189,9.954a3.11,3.11,0,0,0,.172.913,3.843,3.843,0,0,0,.627-.691c1.323-2.469,2.618-4.95,3.935-7.422a5.274,5.274,0,0,1,.71-1.048,1.739,1.739,0,0,1,2.007-.418,1.2,1.2,0,0,1,.823,1.47,12.31,12.31,0,0,1-.767,2.688c-.981,2.293-2.076,4.543-3.06,6.834a4.647,4.647,0,0,0-.337,1.862c.027,1.946.238,3.893.188,5.834a11.05,11.05,0,0,1-1.46,5.134,6.667,6.667,0,0,1-1.143,1.6,1.41,1.41,0,0,0-.424,1.443q2.06,12.167,4.088,24.339C-1118.563,691.88-1118.525,692.165-1118.463,692.585Zm-10.713-32.5c-.444-3.6-4.4-5.324-8.117-4.915C-1133.711,655.549-1130.789,656.876-1129.175,660.086Z" transform="translate(1150.513 -596.812)"/><path fill="currentColor" class="a" d="M-607.093,713.723c.081-.608.156-1.2.237-1.787q1.391-10.119,2.794-20.236a.872.872,0,0,0-.448-.989,11.993,11.993,0,0,1-4.7-4.819c-.289-.6-.545-1.225-.784-1.849a13.033,13.033,0,0,0-5.448-6.88,1.418,1.418,0,0,1-.685-1.563,1.908,1.908,0,0,1,1.8-.959,9.106,9.106,0,0,1,3.684,1.235,11.305,11.305,0,0,1,4.118,4.169,2.538,2.538,0,0,0,.479.458,2.047,2.047,0,0,0,.42-.449,7.921,7.921,0,0,0,.915-5q-1-4.984-2-9.967a4.914,4.914,0,0,1-.112-.8,1.644,1.644,0,0,1,1.543-1.8,1.7,1.7,0,0,1,2.026,1.3c.887,3.256,1.756,6.515,2.632,9.774a.968.968,0,0,0,.085.3c.164.239.357.664.526.658a.834.834,0,0,0,.837-.813q.139-1.549.277-3.1.358-4.06.717-8.12a1.932,1.932,0,0,1,2.059-2.009,1.507,1.507,0,0,1,1.71,1.1,5.885,5.885,0,0,1,.157,1.9c-.273,3.578-.6,7.152-.879,10.729-.025.319.071.914.178.928.559.072.684-.41.845-.792q1.955-4.633,3.909-9.266a6.139,6.139,0,0,1,.62-1.167,1.742,1.742,0,0,1,2-.643,1.212,1.212,0,0,1,.873,1.391,9.829,9.829,0,0,1-.432,2.5c-1.065,3.036-2.209,6.047-3.324,9.067a1.334,1.334,0,0,0-.137.414,3.77,3.77,0,0,0,.095.619,2.1,2.1,0,0,0,.51-.32c1.828-2.12,3.64-4.252,5.468-6.372a5.22,5.22,0,0,1,.89-.836,1.7,1.7,0,0,1,1.936-.023,1.092,1.092,0,0,1,.465,1.483,12.119,12.119,0,0,1-1.291,2.369c-1.41,1.942-2.923,3.819-4.334,5.761a4.91,4.91,0,0,0-.756,1.751c-.452,1.941-.678,3.937-1.275,5.836a10.007,10.007,0,0,1-4.109,5.6.9.9,0,0,0-.272.643c-.281,3.973-.573,7.945-.789,11.92a2.377,2.377,0,0,1-1.136,2,66.235,66.235,0,0,1-10.935,6.358c-.22.1-.443.2-.669.284A1.152,1.152,0,0,1-607.093,713.723Zm3.28-34.235c1.014.626,2.351,1.323,3.523,2.208a6.585,6.585,0,0,1,2.251,3.707C-597.5,682.7-600.552,679.782-603.813,679.488Z" transform="translate(687.75 -620.142)"/></g></svg>
