<svg xmlns="http://www.w3.org/2000/svg" viewBox="0 0 100 125"><g><g><path d="M36.3 33.5H25.1c-1 0-1.8 0.8-1.8 1.8v11.2c0 1 0.8 1.8 1.8 1.8h11.2c1 0 1.8-0.8 1.8-1.8V35.3C38.1 34.3 37.3 33.5 36.3 33.5zM34.5 44.7h-7.6v-7.6h7.6V44.7z"/><path d="M63.7 67.5h11.2c1 0 1.8-0.8 1.8-1.8V54.6c0-1-0.8-1.8-1.8-1.8H63.7c-1 0-1.8 0.8-1.8 1.8v11.2C61.9 66.7 62.7 67.5 63.7 67.5zM65.5 56.3h7.6V64h-7.6V56.3z"/><path d="M36.3 72.1H25.1c-1 0-1.8 0.8-1.8 1.8V85c0 1 0.8 1.8 1.8 1.8h11.2c1 0 1.8-0.8 1.8-1.8V73.9C38.1 72.9 37.3 72.1 36.3 72.1zM34.5 83.2h-7.6v-7.6h7.6V83.2z"/><path d="M63.7 28.9h11.2c1 0 1.8-0.8 1.8-1.8V16c0-1-0.8-1.8-1.8-1.8H63.7c-1 0-1.8 0.8-1.8 1.8v11.2C61.9 28.1 62.7 28.9 63.7 28.9zM65.5 17.8h7.6v7.6h-7.6V17.8z"/><path d="M36.3 52.8H25.1c-1 0-1.8 0.8-1.8 1.8v11.2c0 1 0.8 1.8 1.8 1.8h11.2c1 0 1.8-0.8 1.8-1.8V54.6C38.1 53.6 37.3 52.8 36.3 52.8zM34.5 64h-7.6v-7.6h7.6V64z"/><path d="M63.7 48.2h11.2c1 0 1.8-0.8 1.8-1.8V35.3c0-1-0.8-1.8-1.8-1.8H63.7c-1 0-1.8 0.8-1.8 1.8v11.2C61.9 47.4 62.7 48.2 63.7 48.2zM65.5 37.1h7.6v7.6h-7.6V37.1z"/><path d="M44.4 67.5h11.2c1 0 1.8-0.8 1.8-1.8V54.6c0-1-0.8-1.8-1.8-1.8H44.4c-1 0-1.8 0.8-1.8 1.8v11.2C42.6 66.7 43.4 67.5 44.4 67.5zM46.2 56.3h7.6V64h-7.6V56.3z"/><path d="M44.4 48.2h11.2c1 0 1.8-0.8 1.8-1.8V35.3c0-1-0.8-1.8-1.8-1.8H44.4c-1 0-1.8 0.8-1.8 1.8v11.2C42.6 47.4 43.4 48.2 44.4 48.2zM46.2 37.1h7.6v7.6h-7.6V37.1z"/><path d="M36.3 14.2H25.1c-1 0-1.8 0.8-1.8 1.8v11.2c0 1 0.8 1.8 1.8 1.8h11.2c1 0 1.8-0.8 1.8-1.8V16C38.1 15 37.3 14.2 36.3 14.2zM34.5 25.4h-7.6v-7.6h7.6V25.4z"/><path d="M44.4 28.9h11.2c1 0 1.8-0.8 1.8-1.8V16c0-1-0.8-1.8-1.8-1.8H44.4c-1 0-1.8 0.8-1.8 1.8v11.2C42.6 28.1 43.4 28.9 44.4 28.9zM46.2 17.8h7.6v7.6h-7.6V17.8z"/><path d="M63.7 86.8h11.2c1 0 1.8-0.8 1.8-1.8V73.9c0-1-0.8-1.8-1.8-1.8H63.7c-1 0-1.8 0.8-1.8 1.8V85C61.9 86 62.7 86.8 63.7 86.8zM65.5 75.6h7.6v7.6h-7.6V75.6z"/><path d="M95.7 93.9h-8.4v-86c0-2.9-2.4-5.3-5.3-5.3H18c-2.9 0-5.3 2.4-5.3 5.3v86H4.3c-1 0-1.8 0.8-1.8 1.8s0.8 1.8 1.8 1.8h91.4c1 0 1.8-0.8 1.8-1.8S96.7 93.9 95.7 93.9zM16.3 7.9c0-1 0.8-1.8 1.8-1.8H82c1 0 1.8 0.8 1.8 1.8v86H57.4v-20c0-1-0.8-1.8-1.8-1.8H44.4c-1 0-1.8 0.8-1.8 1.8v20H16.3V7.9zM53.8 93.9h-7.6V75.6h7.6V93.9z"/></g></g></svg>
