<svg xmlns="http://www.w3.org/2000/svg" xmlns:xlink="http://www.w3.org/1999/xlink" version="1.1" x="0px" y="0px" viewBox="0 0 24 30" enable-background="new 0 0 24 24" xml:space="preserve"><g><g><g><g><g><path fill="currentColor" d="M16.028,8.825c-0.253-0.047-0.422-0.261-0.385-0.487c0.04-0.226,0.27-0.374,0.513-0.331       c0.227,0.042,0.39,0.23,0.381,0.438l-0.006,0.124l0.66,0.117l0.013-0.145c0.036-0.396-0.172-0.775-0.543-0.988l-0.079-0.045       l0.078-0.461c0.014-0.083-0.058-0.165-0.16-0.184l-0.286-0.051c-0.103-0.018-0.198,0.034-0.213,0.118l-0.08,0.46l-0.089,0.015       c-0.444,0.077-0.777,0.397-0.848,0.814c-0.046,0.264,0.022,0.534,0.191,0.76c0.17,0.229,0.436,0.392,0.729,0.446       c0.253,0.047,0.422,0.259,0.386,0.482c-0.04,0.226-0.27,0.374-0.514,0.331c-0.227-0.042-0.39-0.23-0.38-0.438l0.006-0.124       l-0.656-0.117l-0.014,0.144c-0.039,0.396,0.165,0.776,0.534,0.992l0.077,0.046l-0.077,0.456       c-0.014,0.083,0.058,0.165,0.16,0.184l0.286,0.051c0.103,0.018,0.198-0.034,0.213-0.118l0.079-0.455l0.089-0.016       c0.449-0.081,0.785-0.402,0.856-0.818C17.044,9.476,16.631,8.937,16.028,8.825z"/></g></g><g><g><path fill="currentColor" d="M15.937,12.813c-0.224,0-0.451-0.021-0.68-0.063c-0.971-0.18-1.813-0.728-2.372-1.542       c-0.559-0.814-0.767-1.797-0.586-2.767c0.367-1.97,2.265-3.339,4.309-2.958c2.003,0.373,3.329,2.306,2.957,4.309       C19.24,11.542,17.715,12.813,15.937,12.813z M15.93,6.22c-1.393,0-2.589,0.996-2.844,2.367c-0.142,0.76,0.021,1.53,0.459,2.168       s1.098,1.066,1.858,1.208c1.595,0.294,3.089-0.773,3.375-2.317c0.292-1.57-0.747-3.084-2.316-3.377       C16.283,6.236,16.105,6.22,15.93,6.22z"/></g></g></g></g><g><g><g><g><path fill="currentColor" d="M8.833,5.421C8.636,5.499,8.424,5.423,8.352,5.249C8.281,5.073,8.377,4.87,8.566,4.794       c0.177-0.07,0.373-0.009,0.457,0.14l0.05,0.089l0.513-0.206L9.532,4.709C9.384,4.416,9.074,4.242,8.721,4.255L8.646,4.257       L8.5,3.902c-0.026-0.064-0.112-0.09-0.192-0.058L8.085,3.933c-0.08,0.032-0.123,0.11-0.097,0.175l0.145,0.357l-0.056,0.05       C7.8,4.762,7.707,5.131,7.84,5.453c0.083,0.204,0.249,0.363,0.465,0.448C8.524,5.987,8.78,5.985,9.009,5.895       c0.197-0.078,0.408-0.003,0.48,0.169C9.56,6.239,9.463,6.443,9.274,6.519c-0.177,0.07-0.373,0.009-0.457-0.14L8.767,6.29       L8.258,6.495l0.053,0.107c0.145,0.294,0.454,0.47,0.806,0.46l0.074-0.002l0.145,0.352c0.026,0.064,0.112,0.09,0.192,0.058       l0.222-0.089c0.08-0.032,0.123-0.111,0.097-0.175L9.705,6.854l0.055-0.05c0.279-0.252,0.374-0.623,0.241-0.945       C9.827,5.433,9.303,5.237,8.833,5.421z"/></g></g><g><g><path fill="currentColor" d="M8.894,8.783c-1.29,0-2.428-0.776-2.9-1.977c-0.628-1.599,0.161-3.411,1.76-4.039       C8.12,2.624,8.502,2.551,8.893,2.551c1.29,0,2.428,0.776,2.9,1.977c0.628,1.599-0.161,3.411-1.76,4.039       C9.667,8.71,9.284,8.783,8.894,8.783z M8.893,3.351c-0.29,0-0.574,0.054-0.846,0.161C6.858,3.979,6.271,5.325,6.738,6.513       C7.196,7.676,8.569,8.282,9.74,7.822c1.188-0.467,1.775-1.813,1.309-3.001C10.697,3.928,9.851,3.351,8.893,3.351z"/></g></g></g></g><g><g><path fill="currentColor" d="M2.58,21.449H0.424c-0.221,0-0.4-0.18-0.4-0.4v-7.186c0-0.221,0.179-0.4,0.4-0.4H2.58     c0.221,0,0.4,0.18,0.4,0.4v7.186C2.98,21.27,2.801,21.449,2.58,21.449z M0.824,20.648H2.18v-6.385H0.824V20.648z"/></g><g><path fill="currentColor" d="M2.58,20.389c-0.087,0-0.172-0.028-0.243-0.082C2.238,20.23,2.18,20.113,2.18,19.988V14.62     c0-0.162,0.097-0.308,0.247-0.369c0.667-0.277,1.186-0.543,1.643-0.778c1.096-0.562,1.888-0.967,3.537-0.967     c0.987,0,1.83,0.259,2.645,0.509c0.75,0.23,1.458,0.448,2.228,0.448h3.307c0.667,0,1.24,0.411,1.479,0.992     c1.491-0.678,3.923-1.82,4.432-2.061c0.791-0.371,1.744-0.084,2.124,0.646c0.316,0.604,0.221,1.579-1.092,2.336     c-2.381,1.374-6.486,3.524-8.97,4.604c-0.757,0.328-1.475,0.396-2.196,0.209c-1.272-0.329-2.243-0.441-4.195-0.416     c-1.663,0.01-3.283,0.218-4.683,0.602C2.651,20.384,2.615,20.389,2.58,20.389z M7.639,18.972c1.844,0,2.839,0.109,4.126,0.443     c0.548,0.141,1.081,0.088,1.676-0.17c2.457-1.067,6.526-3.199,8.888-4.563c0.687-0.396,0.987-0.884,0.784-1.272     c-0.162-0.307-0.618-0.505-1.074-0.292c-0.537,0.253-3.199,1.504-4.663,2.165c-0.211,0.936-1.043,1.615-2.024,1.615H8.645     c-0.221,0-0.4-0.18-0.4-0.4s0.179-0.4,0.4-0.4h6.707c0.595,0,1.101-0.405,1.239-0.968c-0.005-0.022-0.007-0.046-0.007-0.069     c0-0.439-0.357-0.797-0.798-0.797h-3.307c-0.891,0-1.69-0.246-2.463-0.484c-0.793-0.243-1.542-0.474-2.409-0.474     c-1.456,0-2.139,0.35-3.172,0.879c-0.414,0.213-0.876,0.449-1.455,0.7v4.589c1.344-0.319,2.848-0.492,4.385-0.502     C7.458,18.972,7.55,18.972,7.639,18.972z"/></g></g></g></svg>
