<svg xmlns="http://www.w3.org/2000/svg" xmlns:xlink="http://www.w3.org/1999/xlink" version="1.1" x="0px" y="0px" viewBox="0 0 1024 1280" style="enable-background:new 0 0 1024 1024;" xml:space="preserve"><g><g><path d="M880.9,401.7c0,24.8,0,49.6,0,74.4c0,39.6,0,79.1,0,118.7c0,9.1,0,18.3,0,27.4c5-5,10-10,15-15    c-30.9,0-61.7,0-92.6,0c-49.1,0-98.3,0-147.4,0c-11.2,0-22.4,0-33.6,0c-8.1,0-15,6.9-15,15c0,30.9,0,61.7,0,92.6    c0,49.1,0,98.3,0,147.4c0,11.2,0,22.4,0,33.6c5-5,10-10,15-15c-24.8,0-49.6,0-74.4,0c-39.6,0-79.2,0-118.7,0c-9.2,0-18.3,0-27.5,0    c5,5,10,10,15,15c0-30.9,0-61.7,0-92.6c0-49.1,0-98.3,0-147.4c0-11.2,0-22.4,0-33.6c0-8.1-6.9-15-15-15c-30.9,0-61.7,0-92.6,0    c-49.1,0-98.3,0-147.4,0c-11.2,0-22.4,0-33.6,0c5,5,10,10,15,15c0-24.8,0-49.6,0-74.4c0-39.6,0-79.1,0-118.7c0-9.1,0-18.3,0-27.4    c-5,5-10,10-15,15c30.9,0,61.7,0,92.6,0c49.1,0,98.3,0,147.4,0c11.2,0,22.4,0,33.6,0c8.1,0,15-6.9,15-15c0-30.9,0-61.7,0-92.6    c0-49.1,0-98.3,0-147.4c0-11.2,0-22.4,0-33.6c-5,5-10,10-15,15c24.8,0,49.6,0,74.4,0c39.6,0,79.2,0,118.7,0c9.2,0,18.3,0,27.5,0    c-5-5-10-10-15-15c0,30.9,0,61.7,0,92.6c0,49.1,0,98.3,0,147.4c0,11.2,0,22.4,0,33.6c0,8.1,6.9,15,15,15c30.9,0,61.7,0,92.6,0    c49.1,0,98.3,0,147.4,0c11.2,0,22.4,0,33.6,0c7.8,0,15.4-6.9,15-15c-0.4-8.1-6.6-15-15-15c-30.9,0-61.7,0-92.6,0    c-49.1,0-98.3,0-147.4,0c-11.2,0-22.4,0-33.6,0c5,5,10,10,15,15c0-30.9,0-61.7,0-92.6c0-49.1,0-98.3,0-147.4c0-11.2,0-22.4,0-33.6    c0-8.1-6.9-15-15-15c-24.8,0-49.6,0-74.4,0c-39.6,0-79.2,0-118.7,0c-9.2,0-18.3,0-27.5,0c-8.1,0-15,6.9-15,15    c0,30.9,0,61.7,0,92.6c0,49.1,0,98.3,0,147.4c0,11.2,0,22.4,0,33.6c5-5,10-10,15-15c-30.9,0-61.7,0-92.6,0c-49.1,0-98.3,0-147.4,0    c-11.2,0-22.4,0-33.6,0c-8.1,0-15,6.9-15,15c0,24.8,0,49.6,0,74.4c0,39.6,0,79.1,0,118.7c0,9.1,0,18.3,0,27.4c0,8.1,6.9,15,15,15    c30.9,0,61.7,0,92.6,0c49.1,0,98.3,0,147.4,0c11.2,0,22.4,0,33.6,0c-5-5-10-10-15-15c0,30.9,0,61.7,0,92.6c0,49.1,0,98.3,0,147.4    c0,11.2,0,22.4,0,33.6c0,8.1,6.9,15,15,15c24.8,0,49.6,0,74.4,0c39.6,0,79.2,0,118.7,0c9.2,0,18.3,0,27.5,0c8.1,0,15-6.9,15-15    c0-30.9,0-61.7,0-92.6c0-49.1,0-98.3,0-147.4c0-11.2,0-22.4,0-33.6c-5,5-10,10-15,15c30.9,0,61.7,0,92.6,0c49.1,0,98.3,0,147.4,0    c11.2,0,22.4,0,33.6,0c8.1,0,15-6.9,15-15c0-24.8,0-49.6,0-74.4c0-39.6,0-79.1,0-118.7c0-9.1,0-18.3,0-27.4c0-7.8-6.9-15.4-15-15    C887.8,387.1,880.9,393.3,880.9,401.7z"/></g></g></svg>
