<svg xmlns="http://www.w3.org/2000/svg" xmlns:xlink="http://www.w3.org/1999/xlink" version="1.1" x="0px" y="0px" viewBox="0 0 512 640" style="enable-background:new 0 0 512 512;" xml:space="preserve"><g><path d="M481.307,28.794c-2.295-3.599-7.065-4.657-10.693-2.361c-30.444,19.449-110.487,62.635-195.792,43.545   c-29.641-6.612-55.04-13.337-77.455-19.279c-46.86-12.421-80.686-21.357-110.704-17.607c-21.848,2.768-40.664,14.735-50.355,32.012   c-7.188,12.827-8.756,28.177-4.44,43.224c4.754,16.519,16.587,31.467,31.832,41.461c-1.221,2.962-1.984,6.191-1.984,9.65   c0,11.713,7.33,20.441,19.42,23.303l7.859,2.069v20.45c-0.132,10.098-3.391,19.553-9.417,27.345   c-5.856,7.557-8.681,16.983-7.944,26.533c1.492,19.628,18.079,35.252,37.774,35.573c0.217,0,0.425,0.009,0.642,0.009   c10.409,0,20.129-4.062,27.449-11.477c5.945-6.036,9.535-13.643,10.641-21.85c0.099-0.486,0.102-0.972,0.104-1.477   c0.156-1.622,0.393-3.228,0.345-4.887c-0.113-4.269-3.382-7.339-7.963-7.509c-3.716,0.115-6.585,2.864-7.235,6.37l-5.271,1.479   c-4.118,1.162-6.518,5.431-5.365,9.54c0.746,2.648,2.913,4.215,5.363,4.953c-0.612,0.804-0.916,1.777-1.641,2.509   c-4.458,4.525-9.956,6.933-16.823,6.867c-11.769-0.189-21.697-9.54-22.585-21.281c-0.444-5.724,1.237-11.363,4.742-15.878   c8.104-10.475,12.478-23.133,12.657-36.716l0.009-16.993c3.127-0.302,5.875-2.513,6.716-5.734c1.086-4.137-1.379-8.359-5.516-9.446   l-1.2-0.321v-13.432c0-12.988-9.587-23.558-21.376-23.558c-3.242,0-6.239,0.932-8.996,2.361   c-13.202-7.93-23.413-20.452-27.361-34.194c-2.248-7.812-3.533-19.6,3.07-31.379c7.292-13.016,21.791-22.075,38.794-24.219   c26.93-3.353,59.603,5.252,104.801,17.21c22.547,5.97,48.107,12.742,78.05,19.43c90.982,20.271,175.398-25.135,207.486-45.604   C482.544,37.182,483.602,32.402,481.307,28.794z M89.006,159.438v9.37l-4.118-1.077c-7.698-1.823-7.698-6.357-7.698-8.293   c0-4.383,2.711-8.086,5.913-8.086S89.006,155.055,89.006,159.438z"/><path d="M447.897,174.731c-17.144-20.941-42.308-26.42-54.54-27.856l-1.823-22.481c-0.189-2.22-1.313-4.26-3.098-5.582   c-1.795-1.332-4.052-1.851-6.244-1.36l-31.265,6.706l-14.65-19.921c-2.371-3.212-6.773-4.109-10.211-2.059l-32.654,19.562   l-4.194-12.053c-0.69-1.974-2.154-3.58-4.043-4.468c-1.918-0.888-4.062-0.935-6.017-0.217   c-54.145,20.604-66.816,70.004-69.431,84.675c-12.67,6.12-25.933,13.004-40.423,21.504c-2.645,1.559-4.118,4.525-3.769,7.576   c0.359,3.042,2.484,5.592,5.412,6.499c0.179,0.057,17.031,5.422,29.66,24.313c-3.92,3.278-13.092,9.436-33.551,18.079   c-3.155,1.341-5.053,4.591-4.676,7.991c0.378,3.4,2.947,6.149,6.319,6.754c13.725,2.465,31.228,3.977,52.008,4.506l23.662,0.548   c5.209,0.117,10.184,0.235,15.052,0.357c-15.785,11.196-28.395,23.552-26.037,33.601c1.596,6.82,8.057,10.636,19.203,11.354   c1.266,0.076,2.503,0.113,3.731,0.113c31.038,0,48.433-25.311,55.012-42.892c45.222,3.258,65.65,10.87,68.926,33.739   c2.494,17.399-6.867,37.197-23.841,50.45c-23.775,18.561-56.892,21.225-90.83,7.387c-3.58-1.464-7.708-0.057-9.635,3.306   c-1.936,3.353-1.086,7.623,1.984,9.984l45.189,34.808l-28.063,45.321c-1.899,3.07-1.417,7.056,1.162,9.587   c1.492,1.464,3.448,2.22,5.422,2.22c1.445,0,2.9-0.406,4.184-1.228c0,0,42.43-27.317,83.472-54.559l19.978-13.337   c27.26-18.334,48.816-43.299,62.323-72.194c14.32-30.636,17.667-60.376,10.336-88.676   C468.588,221.908,463.905,194.283,447.897,174.731z M277.326,122.6l4.6,13.215c0.775,2.191,2.484,3.929,4.676,4.723   c2.173,0.812,4.619,0.548,6.612-0.633l34.77-20.828l13.441,18.278c1.814,2.475,4.921,3.618,7.859,2.985l27.534-5.904l1.644,20.289   c0.331,4.014,3.674,7.103,7.708,7.113c0.312,0,31.426,0.312,49.751,22.698c8.498,10.373,12.555,24.292,13.033,40.908   c-15.593-26.44-40.74-46.55-71.181-56.144c-26.782-8.442-62.122-9.056-102.223-2.246c-0.59,0.008-1.152,0.1-1.737,0.247   c-1.445,0.253-2.774,0.328-4.232,0.601c-12.156,2.262-26.223,6.879-41.819,13.441C232.798,164.775,245.47,137.72,277.326,122.6z    M253.57,317.305c-1.747-0.104-3.032-0.293-3.967-0.482c4.305-6.085,20.017-18.074,37.089-28.166   c2.815,0.111,5.568,0.23,8.24,0.357C289.698,300.483,277.582,318.999,253.57,317.305z M437.582,338.908   c-12.317,26.354-32.012,49.137-56.939,65.903l-19.902,13.281c-19.354,12.846-39.011,25.711-54.37,35.705l13.592-21.943   c2.088-3.372,1.285-7.783-1.861-10.201l-21.244-16.36c25.844,2.513,49.845-3.911,69.077-18.92   c21.593-16.861,32.956-41.703,29.641-64.845c-5.612-39.213-43.525-45.997-111.315-48.434c-0.13,0.009-0.253-0.033-0.383-0.017   c-12.194-0.435-25.028-0.786-39.161-1.102l-23.614-0.548c-8.558-0.217-16.502-0.605-23.813-1.152   c14.83-8.369,19.099-14.159,20.204-17.324c0.737-2.106,0.529-4.421-0.567-6.366c-8.246-14.622-18.92-23.747-27.364-29.159   c32.772-18.287,60.781-29.918,81.768-34.039c5.219,11.794,15.497,42.79-8.753,64.199c-3.202,2.824-3.514,7.717-0.68,10.919   c1.53,1.738,3.655,2.616,5.8,2.616c1.823,0,3.646-0.633,5.12-1.936c26.861-23.708,22.642-57.268,14.315-78.184   c33.837-4.822,63.518-4.051,85.989,3.052c31.539,9.946,56.722,32.588,69.086,62.125C454.358,275.149,452.8,306.348,437.582,338.908   z"/><path d="M235.95,207.427c-7.42,0.322-13.173,6.6-12.85,14.02c0.324,7.421,6.6,13.173,14.021,12.85   c7.42-0.322,13.173-6.6,12.85-14.02C249.647,212.856,243.37,207.104,235.95,207.427z"/></g></svg>
