<svg xmlns="http://www.w3.org/2000/svg" viewBox="0 0 64 80" x="0px" y="0px"><g data-name="Layer 2"><path d="M23,43.33a1,1,0,1,0-1-1.71,7.54,7.54,0,0,0-3.69,5.6l-1.12-.91a1,1,0,0,0-1.26,1.55l2.75,2.22a1,1,0,0,0,1.61-1A5.84,5.84,0,0,1,23,43.33Z"/><path d="M29.62,45.82a1,1,0,0,0-.91-.2,1,1,0,0,0-.71.63c0,.07-.32.72-1.68.72a2.39,2.39,0,0,1-2.11-.9,1,1,0,0,0-1.75,1A4.33,4.33,0,0,0,26.33,49,4.09,4.09,0,0,0,29.11,48l.76.67a1,1,0,1,0,1.33-1.49Z"/><path d="M55.33,16.52l0-.09a1,1,0,0,0-.2-.29L41.27,2.29A1,1,0,0,0,41,2.1l-.09,0A1,1,0,0,0,40.62,2H9.6a1,1,0,0,0-1,1V61a1,1,0,0,0,1,1H54.4a1,1,0,0,0,1-1V16.84s0,0,0-.06A1,1,0,0,0,55.33,16.52ZM52,15.84H41.56V5.41ZM10.6,60V4h29V16.84a1,1,0,0,0,1,1H53.4V60Z"/><path d="M18.1,18.78H28a1,1,0,1,0,0-2H18.1a1,1,0,0,0,0,2Z"/><path d="M18.1,26.73H46.24a1,1,0,0,0,0-2H18.1a1,1,0,0,0,0,2Z"/><path d="M30.81,32.68H18.1a1,1,0,0,0,0,2H30.81a1,1,0,0,0,0-2Z"/><path d="M49.33,35.52l-1.78-1.29-.68-2.09a1,1,0,0,0-1-.69h-2.2l-1.78-1.29a1,1,0,0,0-1.18,0L39,31.44h-2.2a1,1,0,0,0-1,.69l-.68,2.09-1.78,1.29A1,1,0,0,0,33,36.64l.68,2.09L33,40.82a1,1,0,0,0,.36,1.12l1.78,1.29.68,2.09a1,1,0,0,0,.77.66v9.88a1,1,0,0,0,1,1,1,1,0,0,0,.65-.24l3.45-3,3.45,3a1.08,1.08,0,0,0,.68.24,1,1,0,0,0,1-1V45.32l.68-2.09,1.78-1.29a1,1,0,0,0,.36-1.12L49,38.73l.68-2.09A1,1,0,0,0,49.33,35.52ZM42.38,51.6a1,1,0,0,0-1.3,0L38.6,53.72V46H39l1.78,1.29a1,1,0,0,0,1.18,0L43.72,46h1.13v7.7ZM47,39l.56,1.71L46.11,41.8a1,1,0,0,0-.36.5L45.19,44h-1.8a1,1,0,0,0-.59.19l-1.45,1.06L39.9,44.2a1,1,0,0,0-.59-.19h-1.8L37,42.3a1,1,0,0,0-.36-.5l-1.45-1.06L35.7,39a1,1,0,0,0,0-.62l-.56-1.71,1.45-1.06a1,1,0,0,0,.36-.5l.56-1.71h1.8a1,1,0,0,0,.59-.19l1.45-1.06,1.45,1.06a1,1,0,0,0,.59.19h1.8l.56,1.71a1,1,0,0,0,.36.5l1.45,1.06L47,38.42A1,1,0,0,0,47,39Z"/></g></svg>
