<svg xmlns="http://www.w3.org/2000/svg" viewBox="0 0 100 125" x="0px" y="0px"><path d="M41.48,49a24.76,24.76,0,0,1,8-.9h1.14a25.3,25.3,0,0,1,8,.9,14.23,14.23,0,0,1-1.07,2.81,22.37,22.37,0,0,0-6.87-.71H48.79a20.83,20.83,0,0,0-6.24.71A14.23,14.23,0,0,1,41.48,49ZM63.54,66.21l-.31.28C61.38,82.14,52.45,87.12,50,87.12s-11.38-5-13.23-20.63l-.34-.32c-1-.88-1.94-1.67-2.89-2.44,0,.56.05,1.12.1,1.71C35.32,84.28,46.22,90.12,50,90.12s14.67-5.84,16.36-24.68c0-.59.08-1.15.1-1.71C65.5,64.51,64.53,65.32,63.54,66.21Zm-2.81-1.52.44-.38L61.5,64A97.69,97.69,0,0,1,76.42,53.21l2.35-1.42C84.45,48.4,89,45.71,90.54,37.53c1.66-1.64,5.09-5.93,7.09-8.48,3.81-4.84,2.19-13.53.9-16.17-.2-.42-.82-1.7-2.08-1.7l-.23,0c-1.66.23-2,2.12-2.65,5.87-.45,2.61-1.08,6.18-2.1,7.48-.37.48-.77.95-1.18,1.43C86.8,19.1,74.19,9.88,71.8,9.88a1.58,1.58,0,0,0-1.44.83c-.66,1.21.09,2.08,2.88,5.31,3.85,4.45,11,12.73,10.05,18.37a12.74,12.74,0,0,1-2.52,6.11,13.86,13.86,0,0,1-1.54-2.61c-.31-.86-.64-2.16-1-3.42-1-3.84-1.59-6.39-3.64-6.46a2.12,2.12,0,0,0-1.77,1c-1.43,2.05-2.14,8-.91,11.34a21.9,21.9,0,0,0,2.88,4.92c-.8.51-1.66,1-2.58,1.61S70.45,48,69.47,48.67a22,22,0,0,0,.14-2.8c-.15-7.89-9.1-13-12.16-13a1.89,1.89,0,0,0-1.69.84C55,35,56,36.26,57.58,38.15s4.25,5.08,4.3,7.85c.12,6.65-4.76,11.69-5.7,12.59l-.77.7a3.64,3.64,0,0,0-.08,5.33,4,4,0,0,0,5.4.07Zm6-18.77A18.3,18.3,0,0,1,66,51.37l-1.1,3.83L68.17,53c2-1.36,3.94-2.53,5.62-3.57,1.47-.9,2.78-1.72,4-2.51l1.3-.88-1-1.23a23.08,23.08,0,0,1-3.4-5.41c-.73-2-.47-5.14,0-7.09.29.93.57,2.06.77,2.89.35,1.39.68,2.72,1,3.72a22.06,22.06,0,0,0,3,4.78l1,1.28,1.16-1.13a15.21,15.21,0,0,0,4.5-9C87.16,29,82,22,77.74,16.81c4.65,3.68,10.18,9,10.52,12.14l.34,3.11,2.17-2.27c1.09-1.14,2.1-2.3,3-3.44,1.47-1.87,2.12-5.54,2.68-8.77.07-.37.14-.76.21-1.16.66,3.1.86,8.08-1.31,10.83a97,97,0,0,1-7.1,8.44l-.4.34-.08.52C86.49,43.79,83,45.86,77.28,49.29c-.77.45-1.56.93-2.39,1.44A99.38,99.38,0,0,0,59.53,61.86a2.39,2.39,0,0,0-.22.21l-.54.47a1.1,1.1,0,0,1-1.41,0,.76.76,0,0,1-.24-.55.73.73,0,0,1,.26-.54l.78-.71C59.3,59.64,64.94,53.8,64.79,46c-.06-3.43-2.47-6.64-4.37-8.94C63.15,38.64,66.62,41.83,66.69,45.92Zm-22,18.7a3.64,3.64,0,0,0-.08-5.33L44,58.77l-.15-.14c-1-.94-5.86-6-5.74-12.63.05-2.77,2.61-5.83,4.3-7.85s2.63-3.13,1.82-4.43a1.86,1.86,0,0,0-1.69-.85c-3.06,0-12,5.11-12.16,13a20.28,20.28,0,0,0,.14,2.8c-1-.63-1.92-1.2-2.79-1.74s-1.8-1.11-2.58-1.61A21.9,21.9,0,0,0,28,40.4c1.23-3.3.52-9.29-.91-11.34a2.15,2.15,0,0,0-1.83-1h0c-2,.07-2.61,2.62-3.57,6.46-.31,1.26-.64,2.56-.95,3.42a14.11,14.11,0,0,1-1.54,2.61,12.85,12.85,0,0,1-2.53-6.11C15.76,28.76,22.91,20.47,26.76,16c2.79-3.23,3.54-4.1,2.89-5.31a1.63,1.63,0,0,0-1.45-.83h0c-2.39,0-15,9.22-18.49,16.1C9.3,25.5,8.9,25,8.53,24.55c-1-1.3-1.65-4.87-2.1-7.48-.66-3.75-1-5.64-2.61-5.87l-.27,0h0c-1.26,0-1.88,1.28-2.08,1.69-1.29,2.65-2.91,11.34.9,16.18,2,2.55,5.43,6.84,7.09,8.48C11,45.71,15.55,48.4,21.23,51.79l2.35,1.42A97.26,97.26,0,0,1,38.46,64l.38.35.43.37a4,4,0,0,0,5.4-.07Zm-4.23-2.79a99.44,99.44,0,0,0-15.33-11.1l-2.39-1.44C17,45.86,13.5,43.79,12.24,36.55L12.16,36l-.4-.34a97,97,0,0,1-7.1-8.44c-2.17-2.75-2-7.73-1.31-10.83.07.4.14.79.21,1.16.56,3.23,1.21,6.9,2.68,8.77a43.89,43.89,0,0,0,3,3.44l2.16,2.27L11.74,29c.34-3.13,5.87-8.46,10.52-12.14C18,22,12.84,29,13.83,34.87a15.21,15.21,0,0,0,4.5,9L19.49,45l1-1.28a22.06,22.06,0,0,0,3-4.78c.37-1,.7-2.32,1.05-3.72.2-.83.48-2,.77-2.89.46,2,.72,5.13,0,7.09a23.29,23.29,0,0,1-3.4,5.41l-1,1.23,1.31.88c1.18.79,2.44,1.57,4,2.51s3.57,2.2,5.62,3.57l3.31,2.22L34,51.37a18.65,18.65,0,0,1-.74-5.45c.08-4.09,3.55-7.28,6.28-8.91-1.9,2.3-4.31,5.51-4.37,8.94-.15,7.85,5.49,13.69,6.66,14.81l.2.18.55.5a.73.73,0,0,1,.26.54.76.76,0,0,1-.24.55,1.1,1.1,0,0,1-1.41,0l-.52-.46ZM28.35,12.77Z"/></svg>
